<svg width="43" height="36" viewBox="0 0 43 36" fill="none" xmlns="http://www.w3.org/2000/svg">
<path fill-rule="evenodd" clip-rule="evenodd" d="M0 11.25C0 10.0565 0.566293 8.91193 1.5743 8.06802C2.58231 7.22411 3.94946 6.75 5.375 6.75H25.5312C26.8349 6.74987 28.0942 7.14643 29.0747 7.86584C30.0551 8.58524 30.6898 9.57845 30.8606 10.6605L39.2187 7.551C39.6278 7.39839 40.076 7.33379 40.5225 7.36309C40.969 7.39239 41.3997 7.51465 41.7754 7.71877C42.1511 7.92288 42.46 8.20237 42.6738 8.53183C42.8877 8.86129 42.9998 9.23028 43 9.60525V26.3947C42.9996 26.7694 42.8875 27.1381 42.6737 27.4673C42.46 27.7965 42.1515 28.0758 41.7761 28.2798C41.4008 28.4839 40.9705 28.6062 40.5244 28.6358C40.0783 28.6653 39.6304 28.6011 39.2214 28.449L30.8606 25.3395C30.6898 26.4216 30.0551 27.4148 29.0747 28.1342C28.0942 28.8536 26.8349 29.2501 25.5312 29.25H5.375C3.94946 29.25 2.58231 28.7759 1.5743 27.932C0.566293 27.0881 0 25.9435 0 24.75V11.25Z" fill="black"/>
</svg>
