<svg width="33" height="29" viewBox="0 0 33 29" fill="none" xmlns="http://www.w3.org/2000/svg">
<path fill-rule="evenodd" clip-rule="evenodd" d="M0 14.5C0 10.6544 1.73839 6.96623 4.83274 4.24695C7.92709 1.52767 12.1239 0 16.5 0C20.8761 0 25.0729 1.52767 28.1673 4.24695C31.2616 6.96623 33 10.6544 33 14.5C33 18.3456 31.2616 22.0338 28.1673 24.753C25.0729 27.4723 20.8761 29 16.5 29C12.1239 29 7.92709 27.4723 4.83274 24.753C1.73839 22.0338 0 18.3456 0 14.5H0ZM15.5584 20.706L25.058 10.2699L23.342 9.06347L15.2416 17.9587L9.504 13.7576L8.096 15.2424L15.5584 20.7079V20.706Z" fill="#F24E1E"/>
</svg>
